<svg width="119" height="33" viewBox="0 0 119 33" fill="none" xmlns="http://www.w3.org/2000/svg">
<path d="M19.968 10.584V10.512C19.968 9.216 19.74 8.04 19.284 6.984C18.852 5.904 18.216 4.98 17.376 4.212C16.56 3.444 15.552 2.856 14.352 2.448C13.176 2.016 11.832 1.8 10.32 1.8H0.0240002V27H5.568V19.44H9.78C11.196 19.44 12.516 19.26 13.74 18.9C14.988 18.516 16.068 17.952 16.98 17.208C17.916 16.464 18.648 15.54 19.176 14.436C19.704 13.332 19.968 12.048 19.968 10.584ZM14.352 10.692C14.352 11.772 13.968 12.684 13.2 13.428C12.432 14.148 11.352 14.508 9.96 14.508H5.568V6.804H9.852C11.244 6.804 12.336 7.128 13.128 7.776C13.944 8.424 14.352 9.372 14.352 10.62V10.692ZM43.4389 17.388V17.316C43.4389 15.924 43.1749 14.628 42.6469 13.428C42.1189 12.204 41.3869 11.148 40.4509 10.26C39.5389 9.348 38.4469 8.64 37.1749 8.136C35.9029 7.608 34.5229 7.344 33.0349 7.344C31.5229 7.344 30.1309 7.608 28.8589 8.136C27.5869 8.664 26.4829 9.384 25.5469 10.296C24.6109 11.208 23.8789 12.276 23.3509 13.5C22.8229 14.7 22.5589 15.996 22.5589 17.388V17.46C22.5589 18.852 22.8229 20.16 23.3509 21.384C23.8789 22.584 24.5989 23.64 25.5109 24.552C26.4469 25.44 27.5509 26.148 28.8229 26.676C30.0949 27.18 31.4749 27.432 32.9629 27.432C34.4749 27.432 35.8669 27.168 37.1389 26.64C38.4109 26.112 39.5149 25.392 40.4509 24.48C41.3869 23.568 42.1189 22.512 42.6469 21.312C43.1749 20.088 43.4389 18.78 43.4389 17.388ZM38.0389 17.46C38.0389 18.18 37.9189 18.864 37.6789 19.512C37.4629 20.136 37.1389 20.688 36.7069 21.168C36.2749 21.648 35.7469 22.032 35.1229 22.32C34.5229 22.584 33.8269 22.716 33.0349 22.716C32.2669 22.716 31.5709 22.572 30.9469 22.284C30.3469 21.996 29.8189 21.612 29.3629 21.132C28.9069 20.628 28.5589 20.064 28.3189 19.44C28.0789 18.792 27.9589 18.108 27.9589 17.388V17.316C27.9589 16.596 28.0669 15.924 28.2829 15.3C28.5229 14.652 28.8589 14.088 29.2909 13.608C29.7229 13.128 30.2389 12.756 30.8389 12.492C31.4629 12.204 32.1709 12.06 32.9629 12.06C33.7069 12.06 34.3909 12.204 35.0149 12.492C35.6389 12.78 36.1789 13.176 36.6349 13.68C37.0909 14.16 37.4389 14.724 37.6789 15.372C37.9189 15.996 38.0389 16.668 38.0389 17.388V17.46ZM59.0291 13.068V7.344C57.3971 7.272 56.1011 7.632 55.1411 8.424C54.1811 9.216 53.4251 10.272 52.8731 11.592V7.704H47.4011V27H52.8731V19.872C52.8731 17.544 53.3891 15.828 54.4211 14.724C55.4771 13.62 56.9171 13.068 58.7411 13.068H59.0291ZM73.284 26.208V21.816C72.444 22.272 71.544 22.5 70.584 22.5C69.408 22.5 68.82 21.876 68.82 20.628V12.384H73.356V7.704H68.82V2.772H63.348V7.704H61.044V12.384H63.348V21.528C63.348 22.656 63.48 23.592 63.744 24.336C64.032 25.056 64.416 25.644 64.896 26.1C65.4 26.556 65.988 26.868 66.66 27.036C67.356 27.228 68.124 27.324 68.964 27.324C69.876 27.324 70.68 27.216 71.376 27C72.072 26.808 72.708 26.544 73.284 26.208ZM88.1894 5.544V1.008C87.6854 0.839998 87.1214 0.707999 86.4974 0.611999C85.8974 0.515998 85.1654 0.467998 84.3014 0.467998C82.3574 0.467998 80.8694 0.971998 79.8374 1.98C78.8294 2.964 78.3254 4.524 78.3254 6.66V7.884H76.0574V12.384H78.3254V27H83.7974V12.384H88.1534V7.92H83.7254V7.164C83.7254 5.772 84.3854 5.076 85.7054 5.076C86.1854 5.076 86.6174 5.124 87.0014 5.22C87.3854 5.292 87.7814 5.4 88.1894 5.544ZM109.496 7.704H103.808L99.5955 20.844L95.2035 7.704H89.4075L96.9675 27.072C96.7275 27.552 96.4635 27.876 96.1755 28.044C95.9115 28.236 95.5395 28.332 95.0595 28.332C94.6995 28.332 94.3035 28.26 93.8715 28.116C93.4635 27.972 93.0795 27.792 92.7195 27.576L90.8835 31.536C91.5795 31.944 92.3115 32.268 93.0795 32.508C93.8475 32.748 94.7355 32.868 95.7435 32.868C96.5595 32.868 97.2795 32.772 97.9035 32.58C98.5275 32.388 99.0795 32.076 99.5595 31.644C100.064 31.212 100.52 30.648 100.928 29.952C101.336 29.28 101.72 28.452 102.08 27.468L109.496 7.704Z" fill="white"/>
<path d="M118.337 27V21.24H112.505V27H118.337Z" fill="#FA7E1E"/>
</svg>
