<svg width="18" height="25" viewBox="0 0 18 25" fill="none" xmlns="http://www.w3.org/2000/svg">
<g clip-path="url(#clip0)">
<path d="M17.7116 4.91309L16.098 22.9892L8.84497 25L1.61186 22.992L0 4.91309H17.7116Z" fill="#264DE4"/>
<path d="M14.7166 21.8382L16.0956 6.3913H8.8558V23.463L14.7166 21.8382Z" fill="#2965F1"/>
<path d="M3.69516 13.0966L3.89389 15.3138H8.85581V13.0966H3.69516Z" fill="#EBEBEB"/>
<path d="M8.8558 8.60864H8.84813H3.29584L3.4974 10.826H8.8558V8.60864Z" fill="#EBEBEB"/>
<path d="M8.8558 21.162V18.8551L8.84609 18.8577L6.37666 18.1909L6.21879 16.4225H5.01884H3.99297L4.30361 19.904L8.8456 21.1649L8.8558 21.162Z" fill="#EBEBEB"/>
<path d="M4.1683 0H6.85385V1.12305H5.29135V2.24609H6.85385V3.36914H4.1683V0Z" fill="black"/>
<path d="M7.39096 0H10.0765V0.976562H8.51401V1.17188H10.0765V3.41797H7.39096V2.39258H8.95346V2.19727H7.39096V0Z" fill="black"/>
<path d="M10.6136 0H13.2992V0.976562H11.7367V1.17188H13.2992V3.41797H10.6136V2.39258H12.1761V2.19727H10.6136V0Z" fill="black"/>
<path d="M11.5785 15.3138L11.3211 18.1895L8.84814 18.857V21.1638L13.3937 19.904L13.4271 19.5294L13.9481 13.6919L14.0022 13.0965L14.4025 8.60864H8.84814V10.826H11.9726L11.7708 13.0965H8.84814V15.3138H11.5785Z" fill="white"/>
</g>
<defs>
<clipPath id="clip0">
<rect width="17.7116" height="25" fill="white"/>
</clipPath>
</defs>
</svg>
