<svg width="18" height="23" viewBox="0 0 18 23" fill="none" xmlns="http://www.w3.org/2000/svg">
<path d="M2.25 0C1.65326 0 1.08097 0.237053 0.65901 0.65901C0.237053 1.08097 0 1.65326 0 2.25V20.25C0 20.8467 0.237053 21.419 0.65901 21.841C1.08097 22.2629 1.65326 22.5 2.25 22.5H15.75C16.3467 22.5 16.919 22.2629 17.341 21.841C17.7629 21.419 18 20.8467 18 20.25V6.75L11.25 0H2.25ZM2.25 2.25H10.125V7.875H15.75V20.25H2.25V2.25ZM4.5 11.25V13.5H13.5V11.25H4.5ZM4.5 15.75V18H10.125V15.75H4.5Z" fill="white"/>
</svg>
