<svg width="25" height="25" viewBox="0 0 25 25" fill="none" xmlns="http://www.w3.org/2000/svg">
<path d="M17.2209 24.9331H23.56C24.3181 24.9331 24.9329 24.3183 24.9329 23.56V1.42974C24.9329 0.671338 24.3182 0.0567627 23.56 0.0567627H1.42973C0.67133 0.0567627 0.0567551 0.671338 0.0567551 1.42974V23.56C0.0567551 24.3183 0.671234 24.9331 1.42973 24.9331H13.3439V15.3014H10.1021V11.547H13.3439V8.77829C13.3439 5.56526 15.3063 3.81564 18.1726 3.81564C19.5456 3.81564 20.7257 3.91786 21.0695 3.96362V7.32153L19.0815 7.3224C17.5228 7.3224 17.2209 8.06313 17.2209 9.1501V11.547H20.9386L20.4544 15.3014H17.2209V24.9331Z" fill="white"/>
</svg>
