<svg width="25" height="25" viewBox="0 0 25 25" fill="none" xmlns="http://www.w3.org/2000/svg">
<path d="M23.323 6.53162C22.2053 4.61644 20.6891 3.10019 18.7741 1.98253C16.8588 0.864809 14.7678 0.306091 12.4998 0.306091C10.232 0.306091 8.14042 0.86498 6.22553 1.98253C4.31035 3.10013 2.79421 4.61644 1.67644 6.53162C0.558832 8.44674 0 10.5381 0 12.8055C0 15.5293 0.794666 17.9786 2.3844 20.154C3.97396 22.3296 6.02743 23.835 8.54465 24.6704C8.83767 24.7248 9.05457 24.6865 9.19561 24.5566C9.3367 24.4265 9.40716 24.2636 9.40716 24.0685C9.40716 24.036 9.40437 23.7432 9.39895 23.1897C9.39336 22.6362 9.39074 22.1534 9.39074 21.7414L9.01638 21.8061C8.7777 21.8499 8.47659 21.8684 8.11306 21.8631C7.7497 21.8581 7.37249 21.82 6.98194 21.7492C6.59122 21.679 6.22781 21.5163 5.89142 21.2613C5.55519 21.0063 5.31651 20.6725 5.17542 20.2605L5.01267 19.8859C4.90418 19.6366 4.73339 19.3596 4.50007 19.056C4.26674 18.7521 4.03079 18.5461 3.79211 18.4376L3.67815 18.356C3.60222 18.3018 3.53176 18.2364 3.4666 18.1605C3.4015 18.0847 3.35276 18.0087 3.32021 17.9327C3.2876 17.8566 3.31462 17.7942 3.40156 17.7452C3.48849 17.6962 3.6456 17.6725 3.87357 17.6725L4.19896 17.7211C4.41598 17.7646 4.68442 17.8945 5.00463 18.1116C5.32466 18.3286 5.58774 18.6107 5.79394 18.9577C6.04362 19.4027 6.34444 19.7418 6.69726 19.9751C7.04978 20.2084 7.40522 20.3249 7.76321 20.3249C8.12121 20.3249 8.43041 20.2978 8.69093 20.2438C8.95117 20.1895 9.19532 20.1079 9.42329 19.9995C9.52094 19.2722 9.78682 18.7135 10.2207 18.3229C9.60229 18.258 9.04631 18.1601 8.55246 18.0299C8.0589 17.8996 7.54887 17.6881 7.0227 17.3949C6.49625 17.102 6.05953 16.7384 5.71242 16.3046C5.36525 15.8705 5.08033 15.3007 4.85807 14.5956C4.63568 13.8902 4.52447 13.0765 4.52447 12.1543C4.52447 10.8411 4.95315 9.72368 5.81035 8.80132C5.4088 7.81409 5.44671 6.70737 5.92419 5.48128C6.23887 5.38352 6.70552 5.45688 7.32392 5.70093C7.94244 5.94509 8.3953 6.15424 8.68295 6.32765C8.9706 6.50101 9.20108 6.64791 9.37472 6.76706C10.384 6.48505 11.4256 6.34401 12.4997 6.34401C13.5738 6.34401 14.6156 6.48505 15.6249 6.76706L16.2434 6.37662C16.6663 6.1161 17.1658 5.87736 17.7405 5.66034C18.3156 5.44343 18.7553 5.38369 19.0593 5.48145C19.5474 6.7076 19.5909 7.81426 19.1892 8.80149C20.0463 9.72385 20.4752 10.8416 20.4752 12.1544C20.4752 13.0767 20.3636 13.8929 20.1415 14.6038C19.9192 15.3147 19.6318 15.8839 19.2793 16.3127C18.9264 16.7415 18.4869 17.1023 17.9607 17.3951C17.4344 17.6881 16.9242 17.8996 16.4307 18.0299C15.9369 18.1602 15.3809 18.2581 14.7625 18.3232C15.3265 18.8113 15.6086 19.5818 15.6086 20.6342V24.0681C15.6086 24.2632 15.6764 24.426 15.8122 24.5562C15.9478 24.6861 16.162 24.7243 16.455 24.6699C18.9726 23.8346 21.026 22.3291 22.6155 20.1535C24.2049 17.9781 24.9998 15.5288 24.9998 12.8051C24.9993 10.5379 24.4401 8.44674 23.323 6.53162Z" fill="white"/>
</svg>
