<svg width="25" height="25" viewBox="0 0 25 25" fill="none" xmlns="http://www.w3.org/2000/svg">
<path d="M12.5 2.41563C15.7845 2.41563 16.1735 2.42817 17.4707 2.48735C18.67 2.54209 19.3213 2.74243 19.7548 2.91089C20.2891 3.10808 20.7724 3.42251 21.1691 3.83105C21.5777 4.22783 21.8921 4.71113 22.0893 5.24541C22.2578 5.67886 22.4581 6.33018 22.5128 7.52949C22.572 8.82661 22.5846 9.21562 22.5846 12.5002C22.5846 15.7848 22.572 16.1737 22.5128 17.4709C22.4581 18.6702 22.2577 19.3215 22.0893 19.755C21.8847 20.2855 21.5712 20.7673 21.1691 21.1693C20.7671 21.5714 20.2853 21.8849 19.7548 22.0895C19.3213 22.258 18.67 22.4583 17.4707 22.513C16.1738 22.5722 15.7848 22.5848 12.5 22.5848C9.21517 22.5848 8.82631 22.5722 7.52929 22.513C6.32997 22.4583 5.6787 22.2579 5.2452 22.0895C4.71092 21.8923 4.22762 21.5779 3.83085 21.1693C3.4223 20.7726 3.10788 20.2893 2.91068 19.755C2.74222 19.3215 2.54183 18.6702 2.48715 17.4709C2.42797 16.1738 2.41542 15.7848 2.41542 12.5002C2.41542 9.21562 2.42797 8.82671 2.48715 7.52949C2.54188 6.33018 2.74222 5.67891 2.91068 5.24541C3.1079 4.7111 3.42236 4.22779 3.83095 3.83101C4.22772 3.42246 4.71102 3.10803 5.2453 2.91084C5.67875 2.74238 6.33007 2.54199 7.52938 2.4873C8.8265 2.42813 9.21552 2.41558 12.5001 2.41558L12.5 2.41563ZM12.5001 0.199219C9.15936 0.199219 8.74032 0.213379 7.4285 0.273242C6.11918 0.333008 5.22504 0.540918 4.44262 0.84502C3.62184 1.15389 2.87832 1.63808 2.2639 2.26382C1.63802 2.8782 1.1537 3.62172 0.844714 4.44253C0.540857 5.225 0.332947 6.11914 0.273425 7.42847C0.213318 8.74028 0.199158 9.15933 0.199158 12.5C0.199158 15.8408 0.213318 16.2598 0.273425 17.5716C0.333191 18.881 0.541101 19.7751 0.845203 20.5575C1.15407 21.3783 1.63826 22.1218 2.264 22.7362C2.87842 23.362 3.62194 23.8462 4.44271 24.155C5.22518 24.4591 6.11932 24.667 7.4286 24.7268C8.74061 24.7867 9.15951 24.8008 12.5002 24.8008C15.8409 24.8008 16.2599 24.7867 17.5718 24.7268C18.8811 24.667 19.7752 24.4591 20.5577 24.155C21.3748 23.839 22.1169 23.3557 22.7364 22.7362C23.3559 22.1167 23.8391 21.3746 24.1552 20.5575C24.4593 19.775 24.6672 18.8809 24.7269 17.5716C24.7868 16.2596 24.801 15.8407 24.801 12.5C24.801 9.15938 24.7868 8.74028 24.7269 7.42847C24.6672 6.11914 24.4593 5.225 24.1552 4.44258C23.8463 3.62181 23.3621 2.87829 22.7364 2.26387C22.1219 1.638 21.3784 1.15371 20.5575 0.844775C19.775 0.540918 18.8809 0.333008 17.5716 0.273486C16.2598 0.213379 15.8407 0.199219 12.5 0.199219H12.5001Z" fill="white"/>
<path d="M12.5 6.18335C11.2507 6.18335 10.0294 6.55381 8.99065 7.2479C7.95188 7.94198 7.14226 8.92851 6.66417 10.0827C6.18608 11.2369 6.06099 12.507 6.30472 13.7323C6.54845 14.9576 7.15005 16.0831 8.03345 16.9665C8.91685 17.8499 10.0424 18.4515 11.2677 18.6953C12.493 18.939 13.7631 18.8139 14.9173 18.3358C16.0715 17.8577 17.058 17.0481 17.7521 16.0093C18.4462 14.9706 18.8166 13.7493 18.8166 12.5C18.8166 10.8247 18.1511 9.21806 16.9665 8.03345C15.7819 6.84885 14.1753 6.18335 12.5 6.18335ZM12.5 16.6002C11.689 16.6002 10.8963 16.3598 10.222 15.9092C9.54776 15.4587 9.02223 14.8183 8.7119 14.0691C8.40157 13.3198 8.32038 12.4954 8.47859 11.7001C8.6368 10.9047 9.02732 10.1741 9.60075 9.60067C10.1742 9.02725 10.9048 8.63674 11.7001 8.47854C12.4955 8.32033 13.3199 8.40153 14.0692 8.71187C14.8184 9.02221 15.4587 9.54775 15.9093 10.222C16.3598 10.8963 16.6003 11.689 16.6003 12.5C16.6003 13.5875 16.1683 14.6304 15.3993 15.3993C14.6304 16.1683 13.5875 16.6002 12.5 16.6002Z" fill="white"/>
<path d="M19.0662 7.40992C19.8814 7.40992 20.5423 6.74906 20.5423 5.93384C20.5423 5.11863 19.8814 4.45776 19.0662 4.45776C18.251 4.45776 17.5901 5.11863 17.5901 5.93384C17.5901 6.74906 18.251 7.40992 19.0662 7.40992Z" fill="white"/>
</svg>
