<svg width="25" height="26" viewBox="0 0 25 26" fill="none" xmlns="http://www.w3.org/2000/svg">
<g clip-path="url(#clip0)">
<path d="M11.6821 0.175903C11.6284 0.180786 11.4575 0.197876 11.3037 0.210083C7.75635 0.529907 4.43359 2.44397 2.3291 5.38586C1.15723 7.02161 0.407715 8.87708 0.124512 10.8424C0.0244141 11.5284 0.012207 11.7311 0.012207 12.6613C0.012207 13.5914 0.0244141 13.7941 0.124512 14.4801C0.803223 19.17 4.14062 23.1105 8.66699 24.5704C9.47754 24.8317 10.332 25.0099 11.3037 25.1173C11.6821 25.1588 13.3179 25.1588 13.6963 25.1173C15.3735 24.9318 16.7944 24.5167 18.1958 23.8014C18.4106 23.6915 18.4521 23.6622 18.4229 23.6378C18.4033 23.6232 17.4878 22.3951 16.3892 20.9108L14.3921 18.213L11.8896 14.5094C10.5127 12.4733 9.37988 10.8082 9.37012 10.8082C9.36035 10.8058 9.35059 12.4513 9.3457 14.4606C9.33838 17.9786 9.33594 18.1202 9.29199 18.2032C9.22852 18.3229 9.17969 18.3717 9.07715 18.4254C8.99902 18.4645 8.93066 18.4718 8.56201 18.4718H8.13965L8.02734 18.401C7.9541 18.3546 7.90039 18.2936 7.86377 18.2228L7.8125 18.1129L7.81738 13.2179L7.82471 8.32043L7.90039 8.22522C7.93945 8.17395 8.02246 8.10803 8.08105 8.07629C8.18115 8.02747 8.22021 8.02258 8.64258 8.02258C9.14062 8.02258 9.22363 8.04211 9.35303 8.18372C9.38965 8.22278 10.7446 10.2638 12.3657 12.7223C13.9868 15.1808 16.2036 18.5377 17.2925 20.1857L19.27 23.1813L19.3701 23.1154C20.2563 22.5392 21.1938 21.7189 21.936 20.8644C23.5156 19.0504 24.5337 16.8385 24.8755 14.4801C24.9756 13.7941 24.9878 13.5914 24.9878 12.6613C24.9878 11.7311 24.9756 11.5284 24.8755 10.8424C24.1968 6.15247 20.8594 2.21204 16.333 0.752075C15.5347 0.493286 14.6851 0.315063 13.7329 0.207642C13.4985 0.183228 11.8848 0.156372 11.6821 0.175903ZM16.7944 7.72961C16.9116 7.78821 17.0068 7.90051 17.041 8.0177C17.0605 8.08118 17.0654 9.4386 17.0605 12.4977L17.0532 16.8873L16.2793 15.7008L15.5029 14.5143V11.3234C15.5029 9.26038 15.5127 8.10071 15.5273 8.04456C15.5664 7.90784 15.6519 7.80042 15.769 7.73694C15.8691 7.68567 15.9058 7.68079 16.2891 7.68079C16.6504 7.68079 16.7139 7.68567 16.7944 7.72961Z" fill="white"/>
<path d="M19.1479 23.235C19.0625 23.2887 19.0356 23.3253 19.1113 23.2838C19.165 23.2521 19.2529 23.1862 19.2383 23.1837C19.2309 23.1837 19.1894 23.2081 19.1479 23.235Z" fill="white"/>
<path d="M18.9795 23.3448C18.9355 23.379 18.9355 23.3815 18.9893 23.3546C19.0186 23.34 19.043 23.3229 19.043 23.318C19.043 23.2985 19.0308 23.3033 18.9795 23.3448Z" fill="white"/>
<path d="M18.8574 23.4181C18.8135 23.4523 18.8135 23.4547 18.8672 23.4278C18.8965 23.4132 18.9209 23.3961 18.9209 23.3912C18.9209 23.3717 18.9087 23.3766 18.8574 23.4181Z" fill="white"/>
<path d="M18.7354 23.4913C18.6914 23.5255 18.6914 23.5279 18.7451 23.5011C18.7744 23.4864 18.7988 23.4694 18.7988 23.4645C18.7988 23.4449 18.7866 23.4498 18.7354 23.4913Z" fill="white"/>
<path d="M18.5498 23.589C18.457 23.6378 18.4619 23.6574 18.5547 23.611C18.5962 23.589 18.6279 23.567 18.6279 23.5621C18.6279 23.545 18.6255 23.5475 18.5498 23.589Z" fill="white"/>
</g>
<defs>
<clipPath id="clip0">
<rect width="25" height="25" fill="white" transform="translate(0 0.161255)"/>
</clipPath>
</defs>
</svg>
