<svg width="25" height="26" viewBox="0 0 25 26" fill="none" xmlns="http://www.w3.org/2000/svg">
<g clip-path="url(#clip0)">
<path d="M9.41872 0.882176C12.5698 0.0740726 16.0525 0.54497 18.8315 2.2601C22.3315 4.35316 24.6165 8.31243 24.6746 12.388C24.8025 16.5042 22.6571 20.5856 19.2094 22.824C15.3722 25.4054 10.064 25.5043 6.14535 23.0508C2.15118 20.667 -0.180281 15.8589 0.418649 11.2426C0.901074 6.36468 4.66868 2.06245 9.41872 0.882274V0.882176Z" fill="#010101"/>
<path d="M8.93602 2.87636C14.8895 0.492587 22.1918 4.89373 22.808 11.2775C23.7674 17.0216 18.9999 22.8588 13.1801 23.0274C7.64531 23.5798 2.29652 18.8878 2.13958 13.3298C1.72679 8.82984 4.69191 4.36473 8.93602 2.87636Z" fill="white"/>
<path d="M9.53487 12.0451C12.2035 9.86478 14.814 7.60892 17.5408 5.49261C16.1105 7.69037 14.6396 9.85892 13.2093 12.0566C11.9825 12.0624 10.7559 12.0624 9.53487 12.045V12.0451ZM11.7907 13.2601C13.0233 13.2601 14.25 13.2601 15.4768 13.2776C12.7908 15.4461 10.1919 17.7194 7.45927 19.8299C8.88956 17.6322 10.3605 15.4578 11.7907 13.2601Z" fill="#010101"/>
</g>
<defs>
<clipPath id="clip0">
<rect width="25" height="25" fill="white" transform="translate(0 0.161255)"/>
</clipPath>
</defs>
</svg>
