<svg width="581" height="378" viewBox="0 0 581 378" fill="none" xmlns="http://www.w3.org/2000/svg">
<path d="M129.234 377.454C-33.5454 376.567 -0.279765 282.092 9.47815 277.214C17.6097 255.184 58.7999 205.005 158.508 180.521C283.143 149.917 510.68 250.158 544.833 271.004C578.985 291.85 618.461 371.244 510.68 360.156C402.899 349.067 292.014 378.341 129.234 377.454Z" fill="#191E25"/>
<g clip-path="url(#clip0)">
<path d="M381.9 294.957H371.838V197.16L394.707 196.703L381.9 294.957Z" fill="#FFB8B8"/>
<path d="M430.383 294.957H440.446V197.16L417.576 196.703L430.383 294.957Z" fill="#FFB8B8"/>
<path d="M377.178 308.56L355.768 308.364C354.743 308.617 353.673 308.634 352.641 308.413C351.608 308.192 350.639 307.74 349.808 307.089C348.976 306.439 348.304 305.608 347.841 304.659C347.379 303.71 347.139 302.669 347.139 301.614C347.139 300.305 347.509 299.022 348.206 297.913C348.904 296.805 349.9 295.915 351.081 295.348L355.965 293.001L371.838 282.162L383.272 285.361L385.462 295.208C386.1 298.073 385.59 301.074 384.042 303.57C382.494 306.065 380.031 307.856 377.178 308.56Z" fill="#2F2E41"/>
<path d="M434.809 308.439L413.399 308.243C412.373 308.496 411.304 308.513 410.271 308.292C409.239 308.071 408.27 307.618 407.439 306.968C406.607 306.317 405.935 305.486 405.472 304.538C405.01 303.589 404.769 302.548 404.769 301.493C404.769 300.183 405.139 298.9 405.837 297.792C406.534 296.683 407.531 295.794 408.712 295.226L413.596 292.879L429.468 282.04L440.903 285.239L443.093 295.086C443.73 297.952 443.22 300.953 441.672 303.448C440.125 305.943 437.661 307.735 434.809 308.439Z" fill="#2F2E41"/>
<path d="M443.179 213.189L411.654 210.377L407.503 173.43L398.208 209.177L366.338 206.334C367.513 184.445 370.041 166.185 375.943 156.978L442.722 145.097L443.179 213.189Z" fill="#2F2E41"/>
<path d="M411.319 42.0858C420.726 42.0858 428.353 34.466 428.353 25.0665C428.353 15.6669 420.726 8.04706 411.319 8.04706C401.911 8.04706 394.285 15.6669 394.285 25.0665C394.285 34.466 401.911 42.0858 411.319 42.0858Z" fill="#FFB8B8"/>
<path d="M424.884 60.5521L395.154 56.8961C398.936 48.8485 400.641 41.3338 397.898 34.9603H420.767C417.232 41.2641 420.394 50.6067 424.884 60.5521Z" fill="#FFB8B8"/>
<path d="M442.722 146.011C421.802 161.337 398.971 166.566 374.114 161.091C389.196 126.688 387.042 92.7796 374.114 59.1811L397.898 49.1272C404.567 55.6269 412.215 55.7683 420.767 50.0412L444.094 55.0682C439.827 88.5862 438.397 119.719 442.722 146.011Z" fill="#3F3D56"/>
<path d="M398.752 10.21L395.876 9.05944C395.876 9.05944 401.89 2.44379 410.258 3.01907L407.904 0.430294C407.904 0.430294 413.657 -1.87079 418.887 4.16958C421.636 7.34488 424.817 11.0773 426.8 15.2818H429.88L428.594 18.1102L433.094 20.9386L428.476 20.4306C428.913 22.8724 428.763 25.3832 428.039 27.7559L428.163 29.9915C428.163 29.9915 422.809 21.7155 422.809 20.5649V23.4413C422.809 23.4413 419.933 20.8526 419.933 19.1267L418.364 21.1402L417.579 17.9762L407.904 21.1402L409.473 18.5515L403.459 19.4144L405.812 16.2504C405.812 16.2504 399.014 19.9897 398.752 23.1537C398.491 26.3177 395.091 30.3446 395.091 30.3446L393.522 27.4682C393.522 27.4682 391.169 14.5245 398.752 10.21Z" fill="#2F2E41"/>
<path d="M446.893 182.195H343.581C342.533 182.193 341.528 181.777 340.787 181.037C340.047 180.297 339.63 179.293 339.629 178.246V162.452C339.63 161.405 340.047 160.402 340.787 159.662C341.528 158.921 342.533 158.505 343.581 158.504H446.893C447.941 158.505 448.945 158.921 449.686 159.662C450.427 160.402 450.844 161.405 450.845 162.452V178.246C450.844 179.293 450.427 180.297 449.686 181.037C448.945 181.777 447.941 182.193 446.893 182.195Z" fill="#FA7E1E"/>
<path d="M359.026 166.995C358.146 167.01 357.306 167.37 356.689 167.997C356.071 168.625 355.725 169.469 355.725 170.349C355.725 171.229 356.071 172.074 356.689 172.701C357.306 173.329 358.146 173.688 359.026 173.703H431.337C432.226 173.715 433.083 173.374 433.72 172.756C434.358 172.138 434.724 171.292 434.739 170.404C434.753 169.516 434.415 168.659 433.798 168.02C433.181 167.381 432.336 167.013 431.447 166.995C431.411 166.995 431.374 166.995 431.337 166.995H359.026Z" fill="white"/>
<path d="M384.634 154.694L389.885 164.047C390.507 165.154 390.866 166.389 390.936 167.657C391.005 168.925 390.782 170.192 390.285 171.361C389.787 172.53 389.028 173.569 388.066 174.398C387.104 175.228 385.964 175.826 384.734 176.146C383.492 176.47 382.191 176.502 380.935 176.239C379.678 175.977 378.499 175.427 377.491 174.633C376.482 173.839 375.672 172.823 375.123 171.663C374.573 170.504 374.3 169.233 374.325 167.95L374.571 155.151C370.626 132.398 367.423 110.856 368.168 95.7409H386.463L382.804 113.107L384.634 154.694Z" fill="#FFB8B8"/>
<path d="M445.009 156.979L441.162 163.384C440.533 164.432 439.653 165.309 438.602 165.934C437.551 166.56 436.361 166.916 435.138 166.97C433.916 167.024 432.699 166.774 431.596 166.244C430.494 165.713 429.54 164.918 428.82 163.929C428.245 163.139 427.832 162.243 427.606 161.292C427.379 160.341 427.343 159.355 427.499 158.391C427.656 157.426 428.002 156.502 428.518 155.672C429.034 154.842 429.71 154.122 430.506 153.554L437.233 148.753L446.838 108.994L440.892 92.5419L457.358 89.7999C465.089 107.653 457.302 131.452 445.009 156.979Z" fill="#FFB8B8"/>
<path d="M390.58 99.3968L366.338 98.0258L368.004 72.0731C367.92 68.3994 369.077 64.8045 371.287 61.8673C373.497 58.9301 376.632 56.8216 380.187 55.8813L383.262 55.0681L390.58 99.3968Z" fill="#3F3D56"/>
<path d="M459.188 91.1709L436.776 96.6548V53.6971L437.701 53.6375C441.385 53.4001 445.031 54.4937 447.975 56.7189C450.919 58.9441 452.964 62.1525 453.738 65.759L459.188 91.1709Z" fill="#3F3D56"/>
<path d="M506.245 308.464H164.073V309.592H506.245V308.464Z" fill="#64686F"/>
<path d="M52.9031 275.174C53.2094 286.606 55.126 297.939 58.5964 308.837C58.6758 309.09 58.7589 309.339 58.842 309.592H80.0893C80.0666 309.366 80.0439 309.113 80.0213 308.837C78.6045 292.564 70.4366 193.522 80.2026 176.585C79.3488 177.959 51.2559 223.467 52.9031 275.174Z" fill="#64686F"/>
<path d="M54.4973 308.837C54.6749 309.09 54.86 309.343 55.0489 309.592H70.9881C70.8672 309.377 70.7275 309.124 70.565 308.837C67.9318 304.088 60.1378 289.892 52.9031 275.174C45.128 259.358 37.9952 242.941 38.5959 237C38.4108 238.34 33.031 279.19 54.4973 308.837Z" fill="#64686F"/>
<path d="M253.457 126.532H80.14C79.0922 126.53 78.0878 126.114 77.3469 125.374C76.6061 124.634 76.1893 123.63 76.1881 122.583V26.1271C76.1893 25.0803 76.6061 24.0767 77.3469 23.3365C78.0878 22.5962 79.0922 22.1798 80.14 22.1786H253.457C254.505 22.1799 255.509 22.5963 256.25 23.3365C256.991 24.0767 257.407 25.0803 257.409 26.1271V122.583C257.407 123.63 256.991 124.633 256.25 125.374C255.509 126.114 254.505 126.53 253.457 126.532Z" fill="#FA7E1E"/>
<path d="M255.601 309.592H77.7675C77.0191 309.591 76.3016 309.294 75.7724 308.765C75.2433 308.236 74.9456 307.519 74.9447 306.772V24.7504C74.9456 24.0026 75.2433 23.2858 75.7724 22.7571C76.3016 22.2283 77.0191 21.9309 77.7675 21.93H255.601C256.349 21.9309 257.067 22.2283 257.596 22.7571C258.125 23.2858 258.423 24.0026 258.424 24.7504V306.772C258.423 307.519 258.125 308.236 257.596 308.765C257.067 309.294 256.349 309.591 255.601 309.592ZM77.7675 23.0582C77.3184 23.0587 76.8879 23.2371 76.5704 23.5543C76.2529 23.8716 76.0743 24.3017 76.0738 24.7504V306.772C76.0743 307.22 76.2529 307.65 76.5704 307.968C76.8879 308.285 77.3184 308.463 77.7675 308.464H255.601C256.05 308.463 256.481 308.285 256.798 307.968C257.116 307.65 257.294 307.22 257.295 306.772V24.7504C257.294 24.3017 257.116 23.8716 256.798 23.5543C256.481 23.2371 256.05 23.0587 255.601 23.0582H77.7675Z" fill="#64686F"/>
<path d="M98.7701 178.99C102.2 178.99 104.98 176.212 104.98 172.785C104.98 169.359 102.2 166.581 98.7701 166.581C95.3404 166.581 92.5601 169.359 92.5601 172.785C92.5601 176.212 95.3404 178.99 98.7701 178.99Z" fill="#E6E6E6"/>
<path d="M229.746 184.631H126.433C125.385 184.63 124.381 184.213 123.64 183.473C122.899 182.733 122.482 181.729 122.481 180.682V164.888C122.482 163.842 122.899 162.838 123.64 162.098C124.381 161.357 125.385 160.941 126.433 160.94H229.746C230.793 160.941 231.798 161.358 232.539 162.098C233.28 162.838 233.696 163.842 233.698 164.888V180.682C233.696 181.729 233.28 182.733 232.539 183.473C231.798 184.213 230.793 184.63 229.746 184.631Z" fill="#E6E6E6"/>
<path d="M233.698 185.195H122.481C122.331 185.195 122.188 185.135 122.082 185.03C121.976 184.924 121.917 184.78 121.917 184.631C121.917 184.481 121.976 184.338 122.082 184.232C122.188 184.126 122.331 184.067 122.481 184.067H233.698C233.847 184.067 233.991 184.126 234.097 184.232C234.203 184.338 234.262 184.481 234.262 184.631C234.262 184.78 234.203 184.924 234.097 185.03C233.991 185.135 233.847 185.195 233.698 185.195Z" fill="#3F3D56"/>
<path d="M98.7701 216.219C102.2 216.219 104.98 213.441 104.98 210.014C104.98 206.587 102.2 203.809 98.7701 203.809C95.3404 203.809 92.5601 206.587 92.5601 210.014C92.5601 213.441 95.3404 216.219 98.7701 216.219Z" fill="#E6E6E6"/>
<path d="M229.746 221.86H126.433C125.385 221.858 124.381 221.442 123.64 220.702C122.899 219.961 122.482 218.958 122.481 217.911V202.117C122.482 201.07 122.899 200.067 123.64 199.326C124.381 198.586 125.385 198.17 126.433 198.169H229.746C230.793 198.17 231.798 198.586 232.539 199.326C233.28 200.067 233.696 201.07 233.698 202.117V217.911C233.696 218.958 233.28 219.961 232.539 220.702C231.798 221.442 230.793 221.858 229.746 221.86Z" fill="#E6E6E6"/>
<path d="M233.698 222.424H122.481C122.331 222.424 122.188 222.364 122.082 222.258C121.976 222.153 121.917 222.009 121.917 221.859C121.917 221.71 121.976 221.566 122.082 221.461C122.188 221.355 122.331 221.295 122.481 221.295H233.698C233.847 221.295 233.991 221.355 234.097 221.461C234.203 221.566 234.262 221.71 234.262 221.859C234.262 222.009 234.203 222.153 234.097 222.258C233.991 222.364 233.847 222.424 233.698 222.424Z" fill="#3F3D56"/>
<path d="M98.7701 253.447C102.2 253.447 104.98 250.669 104.98 247.243C104.98 243.816 102.2 241.038 98.7701 241.038C95.3404 241.038 92.5601 243.816 92.5601 247.243C92.5601 250.669 95.3404 253.447 98.7701 253.447Z" fill="#E6E6E6"/>
<path d="M169.339 259.088H126.433C125.385 259.087 124.381 258.67 123.64 257.93C122.899 257.19 122.482 256.186 122.481 255.14V239.346C122.482 238.299 122.899 237.295 123.64 236.555C124.381 235.815 125.385 235.398 126.433 235.397H169.339C170.387 235.398 171.391 235.815 172.132 236.555C172.873 237.295 173.289 238.299 173.291 239.346V255.14C173.289 256.186 172.873 257.19 172.132 257.93C171.391 258.67 170.387 259.087 169.339 259.088Z" fill="#E6E6E6"/>
<path d="M173.291 259.652H122.481C122.331 259.652 122.188 259.593 122.082 259.487C121.976 259.381 121.917 259.238 121.917 259.088C121.917 258.939 121.976 258.795 122.082 258.689C122.188 258.583 122.331 258.524 122.481 258.524H173.291C173.44 258.524 173.584 258.583 173.69 258.689C173.796 258.795 173.855 258.939 173.855 259.088C173.855 259.238 173.796 259.381 173.69 259.487C173.584 259.593 173.44 259.652 173.291 259.652Z" fill="#3F3D56"/>
<path d="M229.746 259.088H186.84C185.792 259.087 184.788 258.67 184.047 257.93C183.306 257.19 182.889 256.186 182.888 255.14V239.346C182.889 238.299 183.306 237.295 184.047 236.555C184.788 235.815 185.792 235.398 186.84 235.397H229.746C230.793 235.398 231.798 235.815 232.539 236.555C233.28 237.295 233.696 238.299 233.698 239.346V255.14C233.696 256.186 233.28 257.19 232.539 257.93C231.798 258.67 230.793 259.087 229.746 259.088Z" fill="#E6E6E6"/>
<path d="M233.698 259.652H182.888C182.738 259.652 182.595 259.593 182.489 259.487C182.383 259.381 182.323 259.238 182.323 259.088C182.323 258.939 182.383 258.795 182.489 258.689C182.595 258.583 182.738 258.524 182.888 258.524H233.698C233.847 258.524 233.991 258.583 234.097 258.689C234.203 258.795 234.262 258.939 234.262 259.088C234.262 259.238 234.203 259.381 234.097 259.487C233.991 259.593 233.847 259.652 233.698 259.652Z" fill="#3F3D56"/>
<path d="M98.9731 52.3868C98.0924 52.4013 97.2526 52.761 96.6349 53.3884C96.0172 54.0159 95.671 54.8607 95.671 55.7408C95.671 56.6209 96.0172 57.4657 96.6349 58.0931C97.2526 58.7205 98.0924 59.0803 98.9731 59.0948H234.514C234.955 59.1025 235.393 59.0233 235.803 58.8616C236.214 58.7 236.588 58.4591 236.906 58.1527C237.223 57.8463 237.477 57.4805 237.652 57.0761C237.828 56.6717 237.922 56.2367 237.929 55.7959C237.936 55.3551 237.857 54.9173 237.694 54.5073C237.532 54.0974 237.291 53.7235 236.984 53.4068C236.677 53.0902 236.31 52.8372 235.905 52.6621C235.5 52.4871 235.065 52.3936 234.624 52.3868C234.587 52.3862 234.55 52.3862 234.514 52.3868H98.9731Z" fill="white"/>
<path d="M98.9731 71.0011C98.0924 71.0156 97.2526 71.3753 96.6349 72.0028C96.0172 72.6302 95.671 73.475 95.671 74.3551C95.671 75.2352 96.0172 76.08 96.6349 76.7074C97.2526 77.3349 98.0924 77.6946 98.9731 77.7091H234.514C235.403 77.7227 236.262 77.3829 236.901 76.7643C237.54 76.1457 237.907 75.299 237.922 74.4101C237.936 73.5212 237.597 72.6629 236.979 72.0237C236.36 71.3845 235.513 71.0167 234.624 71.0011C234.587 71.0005 234.55 71.0005 234.514 71.0011H98.9731Z" fill="white"/>
<path d="M98.9731 89.6155C98.0924 89.6299 97.2526 89.9897 96.6349 90.6171C96.0172 91.2445 95.671 92.0893 95.671 92.9694C95.671 93.8495 96.0172 94.6944 96.6349 95.3218C97.2526 95.9492 98.0924 96.3089 98.9731 96.3234H234.514C235.403 96.337 236.262 95.9972 236.901 95.3787C237.54 94.7601 237.907 93.9133 237.922 93.0244C237.936 92.1355 237.597 91.2772 236.979 90.638C236.36 89.9988 235.513 89.631 234.624 89.6155C234.587 89.6148 234.55 89.6148 234.514 89.6155H98.9731Z" fill="white"/>
<path d="M228.502 286.895L227.082 285.476C227.051 285.445 227.015 285.421 226.974 285.404C226.934 285.388 226.891 285.379 226.848 285.379H226.157C226.092 285.379 226.028 285.398 225.973 285.435C225.919 285.471 225.877 285.522 225.852 285.583C225.827 285.643 225.82 285.709 225.833 285.773C225.846 285.837 225.877 285.896 225.924 285.942L226.71 286.728H220.431C220.281 286.728 220.137 286.787 220.032 286.893C219.926 286.999 219.866 287.142 219.866 287.292C219.866 287.441 219.926 287.585 220.032 287.69C220.137 287.796 220.281 287.856 220.431 287.856H226.71L226.004 288.561C225.951 288.614 225.915 288.681 225.9 288.754C225.886 288.827 225.893 288.903 225.922 288.972C225.95 289.04 225.999 289.099 226.061 289.141C226.123 289.182 226.196 289.204 226.27 289.204H226.829C226.878 289.204 226.927 289.194 226.973 289.176C227.019 289.157 227.06 289.129 227.095 289.094L228.502 287.688C228.554 287.636 228.596 287.574 228.624 287.506C228.652 287.438 228.667 287.365 228.667 287.292C228.667 287.218 228.652 287.145 228.624 287.077C228.596 287.009 228.554 286.947 228.502 286.895Z" fill="#FA7E1E"/>
<path d="M224.665 296.317C222.879 296.317 221.132 295.788 219.647 294.796C218.161 293.804 217.003 292.395 216.32 290.746C215.636 289.096 215.457 287.282 215.806 285.531C216.154 283.78 217.015 282.172 218.278 280.91C219.541 279.648 221.151 278.788 222.903 278.44C224.655 278.092 226.471 278.271 228.122 278.954C229.772 279.637 231.183 280.794 232.175 282.278C233.168 283.762 233.698 285.507 233.698 287.292C233.695 289.685 232.743 291.979 231.049 293.671C229.356 295.362 227.06 296.314 224.665 296.317ZM224.665 279.395C223.102 279.395 221.574 279.858 220.274 280.726C218.974 281.593 217.961 282.827 217.363 284.27C216.765 285.713 216.608 287.301 216.913 288.832C217.218 290.364 217.971 291.771 219.076 292.876C220.182 293.98 221.59 294.732 223.123 295.037C224.656 295.342 226.245 295.185 227.69 294.588C229.134 293.99 230.368 292.978 231.237 291.679C232.105 290.381 232.569 288.854 232.569 287.292C232.566 285.198 231.733 283.191 230.251 281.71C228.769 280.23 226.76 279.397 224.665 279.395Z" fill="#3F3D56"/>
</g>
<defs>
<clipPath id="clip0">
<rect width="468.38" height="309.592" fill="white" transform="translate(37.8649)"/>
</clipPath>
</defs>
</svg>
